<svg width="24" height="24" viewBox="0 0 24 24" fill="none" xmlns="http://www.w3.org/2000/svg">
<path d="M17.5645 11.129L9.04839 5.95161C8.27419 5.56452 7.35484 6.09677 7.35484 6.96774V17.0323C7.35484 17.9516 8.27419 18.4839 9.04839 18.0484L17.5645 13.1613C18.3871 12.7258 18.3871 11.6129 17.5645 11.129ZM24 12C24 5.37097 18.629 0 12 0C5.37097 0 0 5.37097 0 12C0 18.629 5.37097 24 12 24C18.629 24 24 18.629 24 12ZM2.32258 12C2.32258 6.67742 6.62903 2.32258 12 2.32258C17.3226 2.32258 21.6774 6.67742 21.6774 12C21.6774 17.371 17.3226 21.6774 12 21.6774C6.62903 21.6774 2.32258 17.371 2.32258 12Z" fill="#F5F5F5"/>
</svg>
