<svg width="24" height="18" viewBox="0 0 24 18" fill="none" xmlns="http://www.w3.org/2000/svg">
<path id="wifi" d="M12.0187 13.1832C12.6557 13.1832 13.2178 13.7452 13.2178 14.3822C13.2178 15.0567 12.6557 15.5813 12.0187 15.5813C11.3443 15.5813 10.8197 15.0567 10.8197 14.3822C10.8197 13.7452 11.3443 13.1832 12.0187 13.1832ZM12.0187 11.3846C10.3326 11.3846 9.02108 12.7335 9.02108 14.3822C9.02108 16.0684 10.3326 17.3799 12.0187 17.3799C13.6674 17.3799 15.0164 16.0684 15.0164 14.3822C15.0164 12.7335 13.6674 11.3846 12.0187 11.3846ZM19.6628 10.223C19.8501 10.0356 19.8501 9.73585 19.6628 9.58596C15.3162 5.61407 8.68384 5.61407 4.33724 9.58596C4.14988 9.73585 4.14988 10.0356 4.33724 10.223L4.93677 10.86C5.12412 11.0473 5.38642 11.0473 5.57377 10.8974C9.20843 7.60002 14.7916 7.56255 18.4262 10.8974C18.6136 11.0473 18.8759 11.0473 19.0632 10.86L19.6628 10.223ZM23.8595 5.20189C17.1522 -0.905838 6.8103 -0.905838 0.140515 5.20189C-0.0468384 5.35177 -0.0468384 5.65154 0.140515 5.83889L0.740047 6.47589C0.927401 6.62578 1.1897 6.66325 1.37705 6.47589C7.37237 1.04264 16.6276 1.00517 22.623 6.47589C22.8103 6.66325 23.0726 6.62578 23.26 6.47589L23.8595 5.83889C24.0468 5.65154 24.0468 5.35177 23.8595 5.20189Z" fill="#F5F5F5"/>
</svg>
