<svg width="17" height="17" viewBox="0 0 17 17" fill="none" xmlns="http://www.w3.org/2000/svg">
<g clip-path="url(#clip0_6198_479)">
<path d="M8.5 2C4.90927 2 2 4.90927 2 8.5C2 12.0907 4.90927 15 8.5 15C12.0907 15 15 12.0907 15 8.5C15 4.90927 12.0907 2 8.5 2Z" fill="white"/>
<path d="M8.5 0.265625C3.95117 0.265625 0.265625 3.95117 0.265625 8.5C0.265625 13.0488 3.95117 16.7344 8.5 16.7344C13.0488 16.7344 16.7344 13.0488 16.7344 8.5C16.7344 3.95117 13.0488 0.265625 8.5 0.265625ZM12.5375 10.6615C12.6936 10.8176 12.6936 11.0699 12.5375 11.226L11.2227 12.5375C11.0666 12.6936 10.8143 12.6936 10.6582 12.5375L8.5 10.3594L6.33848 12.5375C6.18242 12.6936 5.93008 12.6936 5.77402 12.5375L4.4625 11.2227C4.30645 11.0666 4.30645 10.8143 4.4625 10.6582L6.64062 8.5L4.4625 6.33848C4.30645 6.18242 4.30645 5.93008 4.4625 5.77402L5.77734 4.45918C5.9334 4.30312 6.18574 4.30312 6.3418 4.45918L8.5 6.64062L10.6615 4.4625C10.8176 4.30645 11.0699 4.30645 11.226 4.4625L12.5408 5.77734C12.6969 5.9334 12.6969 6.18574 12.5408 6.3418L10.3594 8.5L12.5375 10.6615Z" fill="#9A9A9A"/>
</g>
<defs>
<clipPath id="clip0_6198_479">
<rect width="17" height="17" fill="white"/>
</clipPath>
</defs>
</svg>
