<svg width="17" height="17" viewBox="0 0 17 17" fill="none" xmlns="http://www.w3.org/2000/svg">
<g clip-path="url(#clip0_6198_949)">
<path d="M8.5 2C4.90927 2 2 4.90927 2 8.5C2 12.0907 4.90927 15 8.5 15C12.0907 15 15 12.0907 15 8.5C15 4.90927 12.0907 2 8.5 2Z" fill="white"/>
<path d="M16.7344 8.5C16.7344 13.0477 13.0477 16.7344 8.5 16.7344C3.95227 16.7344 0.265625 13.0477 0.265625 8.5C0.265625 3.95227 3.95227 0.265625 8.5 0.265625C13.0477 0.265625 16.7344 3.95227 16.7344 8.5ZM7.54753 12.86L13.6569 6.75066C13.8644 6.54321 13.8644 6.20683 13.6569 5.99937L12.9056 5.24809C12.6982 5.0406 12.3618 5.0406 12.1543 5.24809L7.17188 10.2305L4.8457 7.9043C4.63824 7.69685 4.30186 7.69685 4.09438 7.9043L3.34309 8.65559C3.13564 8.86304 3.13564 9.19942 3.34309 9.40688L6.79622 12.86C7.0037 13.0675 7.34005 13.0675 7.54753 12.86Z" fill="#6CA652"/>
</g>
<defs>
<clipPath id="clip0_6198_949">
<rect width="17" height="17" fill="white"/>
</clipPath>
</defs>
</svg>
