<svg width="17" height="17" viewBox="0 0 17 17" fill="none" xmlns="http://www.w3.org/2000/svg">
<g clip-path="url(#clip0_6198_257)">
<path d="M8.5 2C4.90927 2 2 4.90927 2 8.5C2 12.0907 4.90927 15 8.5 15C12.0907 15 15 12.0907 15 8.5C15 4.90927 12.0907 2 8.5 2Z" fill="white"/>
<path d="M16.7344 8.5C16.7344 13.0487 13.0474 16.7344 8.5 16.7344C3.9526 16.7344 0.265625 13.0487 0.265625 8.5C0.265625 3.95393 3.9526 0.265625 8.5 0.265625C13.0474 0.265625 16.7344 3.95393 16.7344 8.5ZM8.5 10.1602C7.65647 10.1602 6.97266 10.844 6.97266 11.6875C6.97266 12.531 7.65647 13.2148 8.5 13.2148C9.34353 13.2148 10.0273 12.531 10.0273 11.6875C10.0273 10.844 9.34353 10.1602 8.5 10.1602ZM7.04992 4.67015L7.29622 9.18578C7.30774 9.39708 7.48246 9.5625 7.69406 9.5625H9.30594C9.51754 9.5625 9.69226 9.39708 9.70378 9.18578L9.95008 4.67015C9.96253 4.44191 9.78081 4.25 9.55224 4.25H7.44773C7.21916 4.25 7.03747 4.44191 7.04992 4.67015Z" fill="#EDB846"/>
</g>
<defs>
<clipPath id="clip0_6198_257">
<rect width="17" height="17" fill="white"/>
</clipPath>
</defs>
</svg>
