<svg width="14" height="23" viewBox="0 0 14 23" fill="none" xmlns="http://www.w3.org/2000/svg">
<path d="M9.975 16.5312C10.2375 16.5312 10.5 16.3066 10.5 15.9922V4.13281C10.5 3.86328 10.2375 3.59375 9.975 3.59375H4.025C3.71875 3.59375 3.5 3.86328 3.5 4.13281V15.9922C3.5 16.3066 3.71875 16.5312 4.025 16.5312H9.975ZM14 2.15625C14 0.988281 13.0375 0 11.9 0H2.1C0.91875 0 0 0.988281 0 2.15625V20.8438C0 22.0566 0.91875 23 2.1 23H11.9C13.0375 23 14 22.0566 14 20.8438V2.15625ZM11.9 20.5742C11.9 20.7539 11.7688 20.8438 11.6375 20.8438H2.3625C2.1875 20.8438 2.1 20.7539 2.1 20.5742V2.42578C2.1 2.29102 2.1875 2.15625 2.3625 2.15625H11.6375C11.7688 2.15625 11.9 2.29102 11.9 2.42578V20.5742ZM9.1 18.8672V18.5078C9.1 18.2383 8.8375 17.9688 8.575 17.9688H5.425C5.11875 17.9688 4.9 18.2383 4.9 18.5078V18.8672C4.9 19.1816 5.11875 19.4062 5.425 19.4062H8.575C8.8375 19.4062 9.1 19.1816 9.1 18.8672Z" fill="#F5F5F5"/>
</svg>
