<svg width="24" height="22" viewBox="0 0 24 22" fill="none" xmlns="http://www.w3.org/2000/svg">
<path d="M22 0.333984H2C0.875 0.333984 0 1.25065 0 2.33398V14.334C0 15.459 0.875 16.334 2 16.334H22C23.0833 16.334 24 15.459 24 14.334V2.33398C24 1.25065 23.0833 0.333984 22 0.333984ZM21.75 14.334H2.25C2.08333 14.334 2 14.2507 2 14.084V2.58398C2 2.45898 2.08333 2.33398 2.25 2.33398H21.75C21.875 2.33398 22 2.45898 22 2.58398V14.084C22 14.2507 21.875 14.334 21.75 14.334ZM20 20.6673C20 20.1257 19.5417 19.6673 19 19.6673H14.875L14.0833 17.3757C14.0417 17.1673 13.8333 17.0007 13.625 17.0007H10.3333C10.125 17.0007 9.91667 17.1673 9.875 17.3757L9.08333 19.6673H5C4.41667 19.6673 4 20.1257 4 20.6673C4 21.2507 4.41667 21.6673 5 21.6673H19C19.5417 21.6673 20 21.2507 20 20.6673Z" fill="#F5F5F5"/>
</svg>
